<svg width="16" height="17" viewBox="0 0 16 17" fill="none" xmlns="http://www.w3.org/2000/svg">
<path d="M14.5333 7.03333C13.2 5.83333 11 4.5 8 4.5C5 4.5 2.8 5.83333 1.46667 7.03333C0.933333 7.43333 0.666666 8.1 0.666666 8.76667C0.666666 9.43333 0.933333 10.1 1.46667 10.5C2.8 11.6333 5 13.0333 8 13.0333C11 13.0333 13.2 11.7 14.5333 10.5C15.0667 10.1 15.3333 9.43333 15.3333 8.76667C15.3333 8.1 15.0667 7.43333 14.5333 7.03333ZM13.6667 9.5C12.5333 10.5 10.6 11.7 8 11.7C5.4 11.7 3.46667 10.5 2.33333 9.5C2.13333 9.3 2 9.03333 2 8.76667C2 8.5 2.13333 8.23333 2.33333 8.03333C3.46667 7.03333 5.4 5.83333 8 5.83333C10.6 5.83333 12.5333 7.03333 13.6667 8.03333C13.8667 8.16667 14 8.43333 14 8.76667C14 9.03333 13.8667 9.3 13.6667 9.5Z" fill="white"/>
<path d="M8.00001 10.3001C8.84684 10.3001 9.53334 9.61357 9.53334 8.76673C9.53334 7.9199 8.84684 7.2334 8.00001 7.2334C7.15317 7.2334 6.46667 7.9199 6.46667 8.76673C6.46667 9.61357 7.15317 10.3001 8.00001 10.3001Z" fill="white"/>
</svg>
